<svg xmlns="http://www.w3.org/2000/svg" viewBox="0 0 64 64">
  <defs>
    <linearGradient id="g" x1="0%" y1="0%" x2="100%" y2="100%">
      <stop offset="0%" stop-color="#7c6dfa"/>
      <stop offset="100%" stop-color="#5b4ef8"/>
    </linearGradient>
  </defs>
  <rect width="64" height="64" rx="14" fill="#0b0a16"/>
  <rect width="60" height="60" x="2" y="2" rx="12" fill="url(#g)"/>
  <path fill="#ffffff" d="M20 44.5c2.2 2.1 5.2 3.5 9.5 3.5 4.5 0 9.5-1.8 9.5-6.6 0-4-3.4-5.5-7.4-6.7l-2.2-.7c-2.6-.8-4.8-1.5-4.8-3.4 0-1.6 1.6-2.9 4.6-2.9 3.2 0 5.6 1.3 6.9 2.4l3-4.7c-2.2-1.7-5.2-3-9.7-3-5.8 0-9.2 2.8-9.2 6.8 0 4.2 3.5 5.8 6.5 6.7l2.3.7c2.6.8 5.3 1.6 5.3 3.7 0 1.9-2 3.1-5 3.1-3.1 0-6.1-1.2-7.9-2.9z"/>
</svg>
